<?xml version="1.0" encoding="UTF-8"?>
<svg xmlns="http://www.w3.org/2000/svg" width="76" height="88" viewBox="0 0 76 88" shape-rendering="crispEdges">
  <defs>
    <filter id="glow" x="-40%" y="-40%" width="180%" height="180%">
      <feGaussianBlur stdDeviation="2" result="blur"/>
      <feMerge><feMergeNode in="blur"/><feMergeNode in="SourceGraphic"/></feMerge>
    </filter>
  </defs>

  <path d="M36 4h4l11 31 22 24-4 13-25-10-4 21h-4l-4-21-25 10-4-13 22-24z" fill="#080b12"/>
  <path d="M38 8l7 34-7 38-7-38z" fill="#2d3247"/>
  <path d="M32 22h12l-2 19h-8z" fill="#ff4bd8" filter="url(#glow)"/>
  <path d="M9 60l23-7-2 9-20 8zM67 60l-23-7 2 9 20 8z" fill="#5e1c74"/>
  <path d="M27 69h22v10H27z" fill="#141827"/>

</svg>