<?xml version="1.0" encoding="UTF-8"?>
<svg xmlns="http://www.w3.org/2000/svg" width="58" height="78" viewBox="0 0 58 78" shape-rendering="crispEdges">
  <defs>
    <filter id="glow" x="-40%" y="-40%" width="180%" height="180%">
      <feGaussianBlur stdDeviation="2" result="blur"/>
      <feMerge><feMergeNode in="blur"/><feMergeNode in="SourceGraphic"/></feMerge>
    </filter>
  </defs>

  <path d="M27 3h4l7 28 17 7-4 11-14-4-3 27H24l-3-27-14 4-4-11 17-7z" fill="#164b31"/>
  <path d="M29 6l5 28-5 36-5-36z" fill="#42d478"/>
  <path d="M25 19h8l-2 13h-4z" fill="#d8fff2" filter="url(#glow)"/>
  <path d="M9 41l14 3-1 8-15 6zM49 41l-14 3 1 8 15 6z" fill="#25995c"/>
  <path d="M24 60h10l2 12H22z" fill="#0b2e20"/>

</svg>