<?xml version="1.0" encoding="UTF-8"?>
<svg xmlns="http://www.w3.org/2000/svg" width="190" height="130" viewBox="0 0 190 130" shape-rendering="crispEdges">
  <defs>
    <filter id="glow" x="-40%" y="-40%" width="180%" height="180%">
      <feGaussianBlur stdDeviation="2" result="blur"/>
      <feMerge><feMergeNode in="blur"/><feMergeNode in="SourceGraphic"/></feMerge>
    </filter>
  </defs>

  <path d="M21 50h148l18 25-18 25H21L3 75z" fill="#34404d"/>
  <path d="M42 35h106l18 40-18 40H42L24 75z" fill="#8394a8"/>
  <path d="M64 49h62v20H64z" fill="#d0ddea"/>
  <path d="M77 30h36l-7 24H84z" fill="#ffe36b" filter="url(#glow)"/>
  <path d="M26 73h28v19H26zM136 73h28v19h-28zM78 84h34v22H78z" fill="#1d2530"/>
  <path d="M34 78h10v9H34zM146 78h10v9h-10zM90 91h10v9H90z" fill="#42f6ff" filter="url(#glow)"/>

</svg>